<svg width="24" height="25" viewBox="0 0 24 25" fill="none" xmlns="http://www.w3.org/2000/svg">
<path d="M24 12.5192C24 11.5125 23.9183 10.7778 23.7415 10.0159H12.2449V14.56H18.9931C18.8571 15.6893 18.1224 17.39 16.4898 18.5328L16.4669 18.6849L20.1019 21.5009L20.3537 21.5261C22.6666 19.39 24 16.2471 24 12.5192Z" fill="#4285F4"/>
<path d="M12.2448 24.4899C15.5509 24.4899 18.3264 23.4014 20.3536 21.5239L16.4897 18.5306C15.4557 19.2517 14.0679 19.7551 12.2448 19.7551C9.00673 19.7551 6.25845 17.6191 5.27876 14.6667L5.13516 14.6789L1.35542 17.6041L1.30599 17.7415C3.31957 21.7415 7.45564 24.4899 12.2448 24.4899Z" fill="#34A853"/>
<path d="M5.27886 14.6655C5.02036 13.9036 4.87076 13.0872 4.87076 12.2437C4.87076 11.4001 5.02036 10.5838 5.26526 9.82193L5.25842 9.65966L1.43131 6.6875L1.30609 6.74706C0.476196 8.40694 0 10.2709 0 12.2437C0 14.2165 0.476196 16.0804 1.30609 17.7403L5.27886 14.6655Z" fill="#FBBC05"/>
<path d="M12.2446 4.73466C14.5439 4.73466 16.0949 5.72785 16.9793 6.55784L20.4351 3.18367C18.3127 1.21089 15.5507 0 12.2446 0C7.45545 0 3.31939 2.74828 1.3058 6.74824L5.26497 9.82311C6.25826 6.87074 9.00654 4.73466 12.2446 4.73466Z" fill="#EB4335"/>
</svg>
